# xmcd CD database file
#
# Track frame offsets:
#	150
#	17610
#	36431
#	53795
#	65232
#	78847
#	102411
#	128813
#	142828
#	170212
#	189936
#	209400
#	237683
#	256462
#
# Disc length: 3667 seconds
#
# Revision: 0
# Processed by: cddbd v1.5.2PL0 Copyright (c) Steve Scherf et al.
# Submitted via: CDex 1.70beta2
#
DISCID=cd0e510e
DTITLE=Various Artist - Displaced
DYEAR=2015
DGENRE=Jazz
TTITLE0=Roger Cicero - Change The World
TTITLE1=Elaiza - Please Call Me Baby
TTITLE2=Laith Al-Deen - The Book Of Love
TTITLE3=Django Deluxe ft. Y'Akoto - Stina
TTITLE4=Jeff Cascaro - You Were There
TTITLE5=Jo Hamilton - Calendar
TTITLE6=Andrew Roachford - A Song For You
TTITLE7=William Billy King - I'll See You In My Dreams
TTITLE8=Till Brönner - A Distant Episode
TTITLE9=Viktoria Tolstoy - You Must Believe In Spring
TTITLE10=Duncan Townsend - Darling Be Home Soon
TTITLE11=Astrid North - Both Sides Now
TTITLE12=Ivy Quainoo - God Bless The Child
TTITLE13=Nathalie Dorra ft. Nils Landgren - Let It Shine
EXTD=YEAR: 2015
EXTT0=
EXTT1=
EXTT2=
EXTT3=
EXTT4=
EXTT5=
EXTT6=
EXTT7=
EXTT8=
EXTT9=
EXTT10=
EXTT11=
EXTT12=
EXTT13=
PLAYORDER=
